<svg width="92" height="92" viewBox="0 0 92 92" fill="none" xmlns="http://www.w3.org/2000/svg">
<path d="M0 44.16C0 23.368 0 12.972 6.44 6.44C12.88 0 23.276 0 44.16 0H47.84C68.632 0 79.028 0 85.56 6.44C92 12.88 92 23.276 92 44.16V47.84C92 68.632 92 79.028 85.56 85.56C79.12 92 68.724 92 47.84 92H44.16C23.368 92 12.972 92 6.44 85.56C0 79.12 0 68.724 0 47.84V44.16Z" fill="#0077FF"/>
<path d="M48.944 66.2396C27.968 66.2396 16.008 51.8876 15.548 27.9676H26.036C26.404 45.5396 34.132 52.9916 40.296 54.4636V27.9676H50.232V43.1476C56.304 42.5036 62.652 35.6036 64.768 27.9676H74.704C73.048 37.3516 66.148 44.2516 61.272 47.1036C66.148 49.4036 74.06 55.3836 77.004 66.3316H66.148C63.848 59.0636 57.96 53.4516 50.324 52.6236V66.2396H48.944Z" fill="white"/>
</svg>
